<svg id="Layer_1" data-name="Layer 1" xmlns="http://www.w3.org/2000/svg" viewBox="0 0 1080 1080"><title>DICE_Logo</title><path d="M958.56,419.56c-17.22,2.91-110.26,18.59-129.92,21.65-21.7,3.36-28.06,31.26-28.06,31.26l79.69-14.17s53.15-8.89,68.42-11.4,2.72,20,2.72,20-42.72,12.31-60.21,17.38-70.07,21.43-92.37,29.11-21.54,11.34-34.32,27-14.73,30.1-14,33.08,28.52-3.55,52.14-8.41,63.2-15.22,63.2-15.22c24.85-6.44,72.79-17.1,74.65-17.23s4.78-1.05,9.61,4.73-2.1,23.74-2.1,23.74c-2.6-2.94-14.77-1.74-14.77-1.74-15.13,1.22-41.93,12.43-64.5,21.82s-63.56,19.74-75.2,23.09-30.94,11.87-44,17.62a186.83,186.83,0,0,0-23.72,12.72c-10.23,12.3-30.08,23.1-30.08,23.1s-32.47-34.78-35.42-39.53,9.48-10.28,18.34-15.32,9.83-6.32,13.51-10.93S702.9,569.1,707.3,560,718.19,534.5,719,530.68s-2.91-27.15-2-33.36,26.4-11.1,26.4-11.1L762.46,461l-17.68-10.33s-2.55-7.88-5.3-18.4S743,420.18,743,420.18c2.47-2.38,8-4,12.27-5.07s56.9-7.54,68.57-8.8c8.66-.94,75.37-7.32,110.75-10.68L540,1,1,540,178.29,717.29l85.3-187.48c-10.61-13.92-91.66,45.3-99.9,50.86s-7.38,8-7.38,8c6.72,14.27,16.86,7.73,16.86,7.73C176.5,625.6,142,605,142,605c-18.21-25.34-27.09-24.64,20.5-63.73S268,487.28,273.55,485a63.56,63.56,0,0,0,10.16-5.37s7.09-19.94,9.15-25.05,3.75-8.09,8.24-6.81,15.59,17.83,21.06,20.61,55-1.13,62.76-1.17,12.57.19,16.92,4.61,24.57,21.28,36.75,48.95-37.7,82.83-70.35,115.63-136,95.29-144,99.6c-7.64,4.12-10.44,9.07-13.05,14.19L540,1079l539-539ZM425.1,728.34s-24.28-3.6-17.09-34.53,27.12-116.09,62.18-195.68,33-70.6,39.69-74.67,10.17-8.26,15.66-.71,14.07,27.92,16,28.56S538,457.7,538,457.7s-15.56,28.8-18.81,35.1-42,81.11-61.59,150.15S425.1,728.34,425.1,728.34Zm91.1-101.42c-16.12-19.15-5.08-54.46-5.08-54.46,52.33-111.64,125.09-144.85,135.47-152.11s19.22-1.7,19.22-1.7c27.36,23.11,17.81,36,9,40.82s9.57-8.06-42.37,19.44S544,576.3,540.87,592.34s-3.11,20,10.51,18.38,86.46-45.46,98.45-50.33,17.68,11.13,22.48,9.51a4.47,4.47,0,0,1,3.65.3c1.74,1,3.91,2.8,0,5.91C633.06,608,576,636,562,641.92,542.76,650,532.32,646.07,516.2,626.92Z"/><path d="M406.52,542.22c10.88-15.38,6.58-24.56,4.15-32.08s-10-8.21-10-8.21c-15.86-4.55-63.92-.46-69.46.34s-16.81,8.74-21.75,12.4-15.88,30.66-15.88,30.66L235.13,689.21l45.95-27.37C351.36,614.63,395.65,557.6,406.52,542.22Z"/></svg>